<?xml version="1.0" standalone="no"?><!DOCTYPE svg PUBLIC "-//W3C//DTD SVG 1.1//EN" "http://www.w3.org/Graphics/SVG/1.1/DTD/svg11.dtd"><svg t="1736844833156" class="icon" viewBox="0 0 1024 1024" version="1.1" xmlns="http://www.w3.org/2000/svg" p-id="26397" width="256" height="256" xmlns:xlink="http://www.w3.org/1999/xlink"><path d="M802.13333333 776.53333333H221.86666667c-28.27733333 0-51.2-22.92266667-51.2-51.2s22.92266667-51.2 51.2-51.2h580.26666666c28.27733333 0 51.2 22.92266667 51.2 51.2s-22.92266667 51.2-51.2 51.2z" fill="#91614C" p-id="26398"></path><path d="M819.2 640H204.8c-9.42933333 0-17.06666667-7.63733333-17.06666667-17.06666667s7.63733333-17.06666667 17.06666667-17.06666666h614.4c9.42933333 0 17.06666667 7.63733333 17.06666667 17.06666666s-7.63733333 17.06666667-17.06666667 17.06666667z" fill="#FAD757" p-id="26399"></path><path d="M802.13333333 605.86666667H221.86666667c-28.16 0-51.2-23.04-51.2-51.2s23.04-51.2 51.2-51.2h580.26666666c28.16 0 51.2 23.04 51.2 51.2s-23.04 51.2-51.2 51.2z" fill="#DF7867" p-id="26400"></path><path d="M832 844.8H192c-21.20533333 0-38.4-17.19466667-38.4-38.4v-4.26666667c0-14.13333333 11.46666667-25.6 25.6-25.6h665.6c14.13333333 0 25.6 11.46666667 25.6 25.6v4.26666667c0 21.20533333-17.19466667 38.4-38.4 38.4z" fill="#F6D499" p-id="26401"></path><path d="M819.2 503.46666667H204.8c-9.42933333 0-17.06666667-7.63733333-17.06666667-17.06666667s7.63733333-17.06666667 17.06666667-17.06666667h614.4c9.42933333 0 17.06666667 7.63733333 17.06666667 17.06666667s-7.63733333 17.06666667-17.06666667 17.06666667z" fill="#FAD757" p-id="26402"></path><path d="M512 128c-191.11466667 0-348.88533333 116.832-372.43733333 267.968-3.21066667 20.608 13.19466667 39.232 34.048 39.232h676.75733333c20.85333333 0 37.25866667-18.63466667 34.048-39.232C860.88533333 244.832 703.11466667 128 512 128z" fill="#F6D499" p-id="26403"></path><path d="M409.6 298.66666667m-34.13333333 0a34.13333333 34.13333333 0 1 0 68.26666666 0 34.13333333 34.13333333 0 1 0-68.26666666 0Z" fill="#E6B05D" p-id="26404"></path><path d="M716.8 366.93333333m-34.13333333 0a34.13333333 34.13333333 0 1 0 68.26666666 0 34.13333333 34.13333333 0 1 0-68.26666666 0Z" fill="#E6B05D" p-id="26405"></path><path d="M597.33333333 213.33333333m-17.06666666 0a17.06666667 17.06666667 0 1 0 34.13333333 0 17.06666667 17.06666667 0 1 0-34.13333333 0Z" fill="#E6B05D" p-id="26406"></path><path d="M802.13333333 435.2H173.80266667c4.576 12.864 14.048 23.31733333 26.29333333 29.10933333 6.624 3.136 13.952 5.024 21.78133333 5.024 2.32533333 0 4.416-0.75733333 6.656-1.06666666 12.91733333 30.69866667 43.27466667 52.26666667 78.67733334 52.26666666 28.04266667 0 52.71466667-13.70666667 68.26666666-34.60266666 15.552 20.88533333 40.224 34.60266667 68.26666667 34.60266666s52.71466667-13.70666667 68.26666667-34.60266666c15.552 20.88533333 40.224 34.60266667 68.26666666 34.60266666s52.71466667-13.70666667 68.26666667-34.60266666c15.552 20.88533333 40.224 34.60266667 68.26666667 34.60266666 35.296 0 65.57866667-21.44 78.56-52 2.24 0.32 4.43733333 0.8 6.77333333 0.8 22.26133333 0 41.01333333-14.29333333 48.064-34.13333333H802.13333333zM818.80533333 640H205.78133333c-9.96266667 0-18.03733333 8.07466667-18.03733333 18.03733333s8.07466667 18.03733333 18.03733333 18.03733334c7.97866667 0 15.232-2.24 22.016-5.35466667C240.14933333 702.624 270.93333333 725.33333333 307.2 725.33333333c28.04266667 0 52.71466667-13.70666667 68.26666667-34.60266666 15.552 20.88533333 40.224 34.60266667 68.26666666 34.60266666s52.71466667-13.70666667 68.26666667-34.60266666c15.552 20.88533333 40.224 34.60266667 68.26666667 34.60266666s52.71466667-13.70666667 68.26666666-34.60266666c15.552 20.88533333 40.224 34.60266667 68.26666667 34.60266666 36.36266667 0 67.18933333-22.83733333 79.488-54.88 6.92266667 3.264 14.34666667 5.61066667 22.528 5.61066667 9.96266667 0 18.03733333-8.07466667 18.03733333-18.03733333-0.01066667-9.952-8.08533333-18.02666667-18.048-18.02666667z" fill="#95BD65" p-id="26407"></path></svg>