<?xml version="1.0" standalone="no"?><!DOCTYPE svg PUBLIC "-//W3C//DTD SVG 1.1//EN" "http://www.w3.org/Graphics/SVG/1.1/DTD/svg11.dtd"><svg t="1736844583089" class="icon" viewBox="0 0 1024 1024" version="1.1" xmlns="http://www.w3.org/2000/svg" p-id="7867" width="256" height="256" xmlns:xlink="http://www.w3.org/1999/xlink"><path d="M871.819661 473.329133L612.001137 693.659969a6.766665 6.766665 0 0 0-0.582041 9.766137l72.387251 77.950556c18.346769 19.755449 49.8805 18.884174 67.106038-1.856816L1002.837656 476.183987c2.560263-3.083385 0.424925-7.757562-3.583298-7.843262-41.355216-0.86949-82.737213-1.805039-123.854971 3.408329a6.870219 6.870219 0 0 0-3.579726 1.580079zM635.329171 51.35167l99.061124 415.841043a6.391731 6.391731 0 0 0 7.700429 4.736666l13.292302-3.167299a6.391731 6.391731 0 0 0 4.736666-7.70043L661.058568 45.222392a6.391731 6.391731 0 0 0-7.70043-4.736666L640.065837 43.653026a6.388161 6.388161 0 0 0-4.736666 7.698644zM179.679067 51.35167L80.616158 467.192713a6.391731 6.391731 0 0 1-7.700429 4.736666l-13.292302-3.167299a6.391731 6.391731 0 0 1-4.736666-7.70043L153.947885 45.222392a6.391731 6.391731 0 0 1 7.70043-4.736666l13.292301 3.1673a6.391731 6.391731 0 0 1 4.738451 7.698644z" fill="#EACAB3" p-id="7868"></path><path d="M463.386241 410.077773h-119.548587a12.744184 12.744184 0 0 1-12.34961-9.594739l-22.288932-87.373896c-2.054995-8.059295 4.033218-15.895415 12.349611-15.895415h164.126449c8.316392 0 14.406391 7.83612 12.349611 15.895415l-22.288932 87.373896a12.745969 12.745969 0 0 1-12.34961 9.594739z" fill="#3B2525" p-id="7869"></path><path d="M651.058543 453.841493H156.167137a9.375134 9.375134 0 0 1-9.37692-9.376919v-38.828876a9.375134 9.375134 0 0 1 9.37692-9.37692h494.891406a9.375134 9.375134 0 0 1 9.37692 9.37692v38.828876c0 5.177659-4.19926 9.37692-9.37692 9.376919z" fill="#DD6546" p-id="7870"></path><path d="M609.715825 992.823348H197.50807c-52.153314 0-96.293754-38.514645-103.360367-90.187686L36.115068 478.267548c-1.767546-12.919153 8.275328-24.426055 21.314103-24.426055H749.79651c13.038775 0 23.079864 11.506902 21.314103 24.426055l-58.032636 424.366328c-7.068398 51.673042-51.208838 90.189472-103.362152 90.189472z" fill="#EACAB3" p-id="7871"></path><path d="M653.05462 83.003238H161.619748a9.375134 9.375134 0 0 1-9.37692-9.37692V40.555357a9.375134 9.375134 0 0 1 9.37692-9.37692h491.436658a9.375134 9.375134 0 0 1 9.37692 9.37692v33.070961a9.378705 9.378705 0 0 1-9.378706 9.37692z" fill="#3B2525" p-id="7872"></path><path d="M137.318671 615.459456c-24.933109 4.038574-44.49752 43.024565-44.49752 90.551908 0 39.859051 30.732087 164.112166 43.404856 213.658797 0.239244 0.93555 0.62489 1.712198 1.090879 2.36744V615.459456zM145.868951 615.459456v306.578145c0.467775-0.655242 0.851636-1.431891 1.090879-2.36744 12.674553-49.54663 43.404855-173.799746 43.404855-213.658797 0.001785-47.527343-19.564411-86.513334-44.495734-90.551908z" fill="#DD6546" p-id="7873"></path><path d="M267.501099 615.459456c-24.933109 4.038574-44.49752 43.024565-44.497519 90.551908 0 39.859051 30.732087 164.112166 43.404855 213.658797 0.239244 0.93555 0.62489 1.712198 1.090879 2.36744V615.459456zM276.049594 615.459456v306.578145c0.467775-0.655242 0.851636-1.431891 1.090879-2.36744 12.674553-49.54663 43.404855-173.799746 43.404855-213.658797 0.001785-47.527343-19.562626-86.513334-44.495734-90.551908z" fill="#DD6546" p-id="7874"></path><path d="M397.681742 615.459456c-24.933109 4.038574-44.49752 43.024565-44.49752 90.551908 0 39.859051 30.732087 164.112166 43.404855 213.658797 0.239244 0.93555 0.62489 1.712198 1.09088 2.36744V615.459456zM406.232022 615.459456v306.578145c0.467775-0.655242 0.851636-1.431891 1.090879-2.36744 12.674553-49.54663 43.404855-173.799746 43.404855-213.658797 0-47.527343-19.564411-86.513334-44.495734-90.551908z" fill="#DD6546" p-id="7875"></path><path d="M527.862385 615.459456c-24.933109 4.038574-44.49752 43.024565-44.49752 90.551908 0 39.859051 30.732087 164.112166 43.404855 213.658797 0.239244 0.93555 0.62489 1.712198 1.090879 2.36744V615.459456zM536.412664 615.459456v306.578145c0.467775-0.655242 0.851636-1.431891 1.09088-2.36744 12.674553-49.54663 43.404855-173.799746 43.404855-213.658797 0-47.527343-19.564411-86.513334-44.495735-90.551908z" fill="#DD6546" p-id="7876"></path><path d="M658.044813 615.459456c-24.933109 4.038574-44.49752 43.024565-44.49752 90.551908 0 39.859051 30.732087 164.112166 43.404855 213.658797 0.239244 0.93555 0.62489 1.712198 1.090879 2.36744V615.459456zM666.593307 615.459456v306.578145c0.467775-0.655242 0.851636-1.431891 1.090879-2.36744 12.674553-49.54663 43.404855-173.799746 43.404856-213.658797 0.001785-47.527343-19.562626-86.513334-44.495735-90.551908z" fill="#DD6546" p-id="7877"></path></svg>