<?xml version="1.0" standalone="no"?><!DOCTYPE svg PUBLIC "-//W3C//DTD SVG 1.1//EN" "http://www.w3.org/Graphics/SVG/1.1/DTD/svg11.dtd"><svg t="1736844703350" class="icon" viewBox="0 0 1024 1024" version="1.1" xmlns="http://www.w3.org/2000/svg" p-id="16150" width="256" height="256" xmlns:xlink="http://www.w3.org/1999/xlink"><path d="M48 240m32 0l864 0q32 0 32 32l0 608q0 32-32 32l-864 0q-32 0-32-32l0-608q0-32 32-32Z" fill="#ED7899" p-id="16151"></path><path d="M80 240h864a32 32 0 0 1 32 32v128H48v-128a32 32 0 0 1 32-32z" fill="#CED9ED" p-id="16152"></path><path d="M976 896a16 16 0 0 1-16 16H64a16 16 0 0 1-16-16 64 64 0 0 1 64-64h800a64 64 0 0 1 64 64z" fill="#E0678F" p-id="16153"></path><path d="M656 240h-64l-9.12-64h-140.8L432 240h-64v-64a64 64 0 0 1 64-64h160a64 64 0 0 1 64 64z" fill="#ACB7D0" p-id="16154"></path><path d="M640 560h-64a16 16 0 0 1-16-16v-64a16 16 0 0 0-16-16h-64a16 16 0 0 0-16 16v64a16 16 0 0 1-16 16h-64a16 16 0 0 0-16 16v64a16 16 0 0 0 16 16h64a16 16 0 0 1 16 16v64a16 16 0 0 0 16 16h64a16 16 0 0 0 16-16v-64a16 16 0 0 1 16-16h64a16 16 0 0 0 16-16v-64a16 16 0 0 0-16-16z" fill="#FAEFDE" p-id="16155"></path><path d="M176 368m32 0l64 0q32 0 32 32l0 0q0 32-32 32l-64 0q-32 0-32-32l0 0q0-32 32-32Z" fill="#FADB6F" p-id="16156"></path><path d="M720 368m32 0l64 0q32 0 32 32l0 0q0 32-32 32l-64 0q-32 0-32-32l0 0q0-32 32-32Z" fill="#FADB6F" p-id="16157"></path><path d="M944 224H672v-48a80 80 0 0 0-80-80H432a80 80 0 0 0-80 80v48H80a48 48 0 0 0-48 48v608a48 48 0 0 0 48 48h864a48 48 0 0 0 48-48V272a48 48 0 0 0-48-48z m-560-48a48 48 0 0 1 48-48h160a48 48 0 0 1 48 48v48h-32v-32a32 32 0 0 0-32-32h-128a32 32 0 0 0-32 32v32h-32z m192 48h-128v-32h128zM80 256h864a16 16 0 0 1 16 16v112h-98.88A48 48 0 0 0 816 352h-64a48 48 0 0 0-45.12 32H317.12A48 48 0 0 0 272 352h-64a48 48 0 0 0-45.12 32H64v-112a16 16 0 0 1 16-16z m752 144a16 16 0 0 1-16 16h-64a16 16 0 0 1 0-32h64a16 16 0 0 1 16 16z m-544 0a16 16 0 0 1-16 16h-64a16 16 0 0 1 0-32h64a16 16 0 0 1 16 16z m672 480a16 16 0 0 1-16 16H80a16 16 0 0 1-16-16V416h98.88A48 48 0 0 0 208 448h64a48 48 0 0 0 45.12-32h389.76A48 48 0 0 0 752 448h64a48 48 0 0 0 45.12-32H960z" fill="#8D6C9F" p-id="16158"></path><path d="M672 640v-64a32 32 0 0 0-32-32h-64v-64a32 32 0 0 0-32-32h-64a32 32 0 0 0-32 32v64h-64a32 32 0 0 0-32 32v64a32 32 0 0 0 32 32h64v64a32 32 0 0 0 32 32h64a32 32 0 0 0 32-32v-64h64a32 32 0 0 0 32-32z m-32 0h-64a32 32 0 0 0-32 32v64h-64v-64a32 32 0 0 0-32-32h-64v-64h64a32 32 0 0 0 32-32v-64h64v64a32 32 0 0 0 32 32h64zM272 800a16 16 0 0 0-16 16v32a16 16 0 0 0 32 0v-32a16 16 0 0 0-16-16zM192 800a16 16 0 0 0-16 16v32a16 16 0 0 0 32 0v-32a16 16 0 0 0-16-16zM112 800a16 16 0 0 0-16 16v32a16 16 0 0 0 32 0v-32a16 16 0 0 0-16-16zM512 800a16 16 0 0 0-16 16v32a16 16 0 0 0 32 0v-32a16 16 0 0 0-16-16zM352 800a16 16 0 0 0-16 16v32a16 16 0 0 0 32 0v-32a16 16 0 0 0-16-16zM432 800a16 16 0 0 0-16 16v32a16 16 0 0 0 32 0v-32a16 16 0 0 0-16-16zM592 800a16 16 0 0 0-16 16v32a16 16 0 0 0 32 0v-32a16 16 0 0 0-16-16zM832 800a16 16 0 0 0-16 16v32a16 16 0 0 0 32 0v-32a16 16 0 0 0-16-16zM672 800a16 16 0 0 0-16 16v32a16 16 0 0 0 32 0v-32a16 16 0 0 0-16-16zM752 800a16 16 0 0 0-16 16v32a16 16 0 0 0 32 0v-32a16 16 0 0 0-16-16zM912 864a16 16 0 0 0 16-16v-32a16 16 0 0 0-32 0v32a16 16 0 0 0 16 16z" fill="#8D6C9F" p-id="16159"></path></svg>