<?xml version="1.0" standalone="no"?><!DOCTYPE svg PUBLIC "-//W3C//DTD SVG 1.1//EN" "http://www.w3.org/Graphics/SVG/1.1/DTD/svg11.dtd"><svg t="1736844637485" class="icon" viewBox="0 0 1024 1024" version="1.1" xmlns="http://www.w3.org/2000/svg" p-id="11392" width="256" height="256" xmlns:xlink="http://www.w3.org/1999/xlink"><path d="M 305 169.6 l -95.5 -78.2 l -15.1 15.1 l 58.9 58.3 c 1.9 1.9 3.4 4.1 4.3 6.8 L 292 261 c 12.2 -4.5 25.4 -6.7 39.5 -6.9 c 2 0 4.1 0 6.5 0.2 l -33 -84.7 Z M 307.1 315.3 l -1.1 0.7 c -4.4 2.6 -8.5 6 -12 9.6 c -3.6 3.5 -6.8 7.6 -9.3 11.7 l -0.3 0.3 c -0.2 0.1 -0.2 0.4 -0.2 0.6 l -0.3 0.3 c -7.4 11.5 -11 24.4 -11 38.7 l -0.2 0.3 c 0.2 10.1 1.9 19.3 5.3 27.7 c 0.2 0.5 0.4 1 0.7 1.2 l 0.2 0.2 c 2.8 7 7 13.5 12.5 19.2 c 0.6 0.7 1.1 1.2 1.3 1.9 c 0.3 0.3 0.8 0.8 1.3 1.2 l 1.2 1.2 c 14.1 13.4 30.8 20.1 50.2 20.1 h 0.5 c 20.1 -0.2 37.1 -7.4 51.1 -21.6 c 14.2 -14 21.4 -31.3 21.6 -51.6 l 0.3 0.2 c -0.3 -19.6 -7 -36.3 -20.4 -50.5 l -0.7 -0.6 l -0.5 -0.5 c -0.5 -0.5 -0.9 -1 -1.2 -1.2 c -0.4 -0.5 -0.9 -1 -1.4 -1.4 c -6 -5.5 -12.7 -9.9 -19.7 -12.9 c -0.4 -0.3 -0.9 -0.3 -1.4 -0.5 c -8.6 -3.6 -17.9 -5.3 -27.7 -5.3 c -14.4 0 -27.3 3.5 -38.8 11 Z M 149.5 301.2 c -2.6 -1 -4.8 -2.4 -6.7 -4.4 l -58.2 -59 l -15 15 l 78 95.8 l 84.9 32.7 c -0.2 -2.2 -0.5 -4.3 -0.2 -6.5 l -0.3 -0.2 c 0.3 -6.5 4.8 -10.5 13.9 -12.2 c -7 -11.4 -9.1 -20.6 -6.7 -27 l -89.7 -34.2 Z M 467.2 374.3 c -0.3 23 -6.5 43.3 -18.7 61.3 c 21.5 11 45.9 20.6 73 28.5 l 1.1 -101.2 c -18.6 5.2 -37.5 4.7 -56.4 -1.4 c 0.3 4 0.7 8.3 1 12.8 Z" fill="#c2bbb4" p-id="11393"></path><path d="M 445.6 664 c -3.6 -30.3 -8.1 -58.8 -13.6 -85.3 l -112.7 1.6 c 0.2 1.2 0.5 2.2 1 3.4 C 333 621.5 342 664 347.8 711.2 c 8.9 73.1 33.9 139.9 75.6 199.9 c 16.3 24 35.1 46.9 56.6 68.7 c 25.2 5.5 45.1 4.5 59.4 -2.4 c 11.7 -7.2 19.1 -19.8 22.2 -38.1 c -27 -38.2 -49.5 -76 -67.2 -113.1 c -18.2 -38 -31.5 -75.4 -40.2 -112 c -3.8 -16.9 -6.7 -33.7 -8.6 -50.2 Z" fill="#f4c959" p-id="11394"></path><path d="M 327.7 487.1 c -3.1 20.5 -2.7 39.4 1.5 56.4 l 101.1 -1.2 c -7.9 -27.1 -17.4 -51.5 -28.4 -73 c -17.7 12 -38.1 18.2 -61 18.4 c -4.6 -0.2 -9.2 -0.5 -13.2 -0.6 Z" fill="#c2bbb4" p-id="11395"></path><path d="M 554.5 365.1 c -1.3 -0.5 -2.2 -1 -3.1 -1.3 l -1.8 112.7 c 26.4 5.5 54.9 10.1 85.5 13.6 c 16.5 2.2 33 5 50 8.9 c 36.5 8.6 74.1 22 112.1 40 c 37.1 17.9 74.7 40.1 113.2 67.2 c 17.9 -3.2 30.6 -10.4 37.7 -22 c 7.3 -14.7 8 -34.2 2.5 -59.4 c -21.8 -21.5 -44.7 -40.4 -68.5 -56.9 c -60.2 -41.4 -127 -66.5 -200.1 -75.3 c -47.2 -5.8 -89.8 -14.9 -127.5 -27.5 Z" fill="#f4c959" p-id="11396"></path><path d="M 223.8 29.1 c -4.8 0.3 -8.9 2.2 -12.4 5.8 L 170.3 76 c -3.6 3.6 -5.5 8.1 -5.4 13.4 c -0.1 5.3 1.8 9.8 5.5 13.7 l 69.9 68.9 l 35.4 91.8 c -2.4 1.7 -4.5 3.6 -6.5 5.5 c -1.8 1.9 -3.7 3.8 -5.5 5.9 l -91.8 -34.9 l -68.9 -69.8 c -3.8 -3.8 -8.4 -5.8 -13.4 -5.8 c -5.5 0 -10 2 -13.6 5.5 l -41.1 41.2 c -3.7 3.6 -5.5 7.7 -5.8 12.4 c -0.2 5 1.2 9.3 4.3 12.9 L 126 349.4 c 2.2 2.7 4.8 4.8 7.9 6 l 115.8 44.9 c 3.7 7 8.6 13.9 14.5 20.4 c 0.8 1.2 1.5 2.4 2.7 3.6 c 0.7 0.7 1.6 1.7 2.3 2.4 l 1.5 1.4 c 30.8 32.3 37.5 64.6 20.1 96.6 c -0.8 1.5 -1.4 3 -1.7 4.1 c -0.4 1.2 -0.7 2.4 -0.7 3.6 c -0.5 2.1 -0.5 4.1 0 5.8 l 0.7 2.1 c 0 0.7 0.3 1.2 0.8 1.7 l -0.3 0.2 c 3.6 8.6 6.7 17.5 9.8 26.5 c 11.7 35.5 20.3 75.4 25.8 120.1 c 9.6 79.5 36.8 151.7 82 217 c 18.5 27.5 40.3 53.3 65.2 77.9 c 2.3 2.5 5.2 4.1 8.6 4.8 c 39.9 9.8 70.7 8.5 92.5 -4.5 c 24.1 -12.7 38.5 -37.6 42.6 -74.2 c 0.5 -5 -0.7 -9.3 -3.6 -13.1 c -27.5 -38.8 -50.3 -76.8 -68.1 -114.1 c -17 -35.1 -29.5 -69.9 -37.2 -104.1 l -0.2 -0.2 c -3.5 -15.1 -6.2 -30.1 -7.9 -45.2 c -4.5 -38 -10.5 -72.7 -17.9 -104.5 v -0.5 l -0.2 -0.7 c -6.5 -24.7 -13.5 -47.2 -21.3 -67.7 c 20.3 7.9 42.3 14.6 65.9 20.5 c 1.3 0.5 2.5 1 3.6 1.3 c 31.4 7.4 66.1 13.3 104.1 17.4 c 14.8 1.7 29.9 4.3 45.2 7.9 l 0.2 0.2 c 34 8 68.7 20.2 104.1 37.2 c 37.1 17.8 75.1 40.8 113.8 68.3 c 4.1 2.7 8.5 3.8 13.5 3.4 c 36.5 -4.1 61.2 -18.2 73.9 -42.4 c 12.9 -21.7 14.4 -52.5 4.5 -92.5 c -0.7 -3.4 -2.4 -6.3 -4.8 -8.7 c -24.6 -24.8 -50.5 -46.6 -77.7 -65.2 c -65.3 -45 -137.8 -72.3 -217.2 -81.9 c -44.7 -5.5 -84.7 -14.1 -119.8 -26 c -9.4 -2.9 -18.2 -6 -26.8 -9.6 c -1.2 -0.5 -2.4 -1 -3.6 -1.1 c -2.1 -0.5 -4.1 -0.5 -6 -0.3 c -1.4 0.3 -2.9 0.4 -4 0.7 l -1.7 0.7 c -0.5 0.2 -1.3 0.5 -1.9 1 c -32.3 17.5 -64.6 11 -96.9 -19.9 l -0.7 -0.7 l -0.2 -0.3 c -0.3 -0.1 -0.3 -0.1 -0.5 -0.4 l -1.2 -1.2 c -0.8 -0.7 -1.7 -1.7 -2.5 -2.4 c -0.2 -0.2 -0.4 -0.5 -0.6 -0.7 c -7 -6 -14.4 -11.3 -22 -15.3 l -45 -115.8 c -1.2 -3.1 -3.2 -5.9 -5.7 -8.2 L 236.9 33.2 c -3.7 -2.9 -8 -4.3 -13.1 -4.1 Z m -12.6 60.1 l 15 -15.1 l 95.5 78.2 l 33 84.7 c -2.5 -0.3 -4.6 -0.3 -6.5 -0.3 c -14.1 0.3 -27.3 2.4 -39.5 7 l -34.4 -89.5 c -1 -2.6 -2.4 -4.7 -4.3 -6.6 l -58.8 -58.4 Z M 74.3 226 l 15.1 -15 l 58.1 59 c 1.9 1.9 4 3.3 6.7 4.3 l 89.7 34.2 c -4.5 12.2 -7 25.1 -7.2 39.2 l 0.2 0.3 c -0.2 2.1 0 4.3 0.3 6.5 l -84.9 -32.8 l -78 -95.7 Z m 326.5 71.5 c 13.4 14.1 20.1 30.8 20.4 50.5 l -0.3 -0.3 c -0.2 20.4 -7.4 37.6 -21.5 51.7 c -14.2 14.2 -31.1 21.3 -51.2 21.6 h -0.5 c -19.3 0 -36.1 -6.8 -50.2 -20.2 l -1.2 -1.2 c -0.5 -0.4 -0.9 -0.9 -1.2 -1.1 c -0.2 -0.8 -0.7 -1.3 -1.4 -1.9 c -5.5 -5.8 -9.6 -12.3 -12.5 -19.2 l -0.2 -0.3 c -0.3 -0.1 -0.5 -0.6 -0.8 -1.1 c -3.3 -8.4 -5 -17.8 -5.2 -27.8 l 0.2 -0.2 c 0 -14.4 3.6 -27.3 11 -38.8 l 0.3 -0.2 c 0 -0.3 0 -0.5 0.2 -0.7 l 0.3 -0.2 c 2.6 -4.1 5.7 -8.2 9.3 -11.8 c 3.6 -3.6 7.7 -6.9 11.9 -9.6 l 1.3 -0.6 c 11.4 -7.5 24.4 -11 38.7 -11 c 9.8 0 19.2 1.6 27.8 5.2 c 0.4 0.3 0.9 0.3 1.4 0.4 c 6.9 3.2 13.6 7.5 19.6 13 c 0.5 0.4 1 0.9 1.4 1.4 c 0.3 0.2 0.8 0.7 1.2 1.2 l 0.5 0.5 l 0.7 0.7 Z m 58.6 50.5 c -0.2 -4.5 -0.7 -8.9 -0.9 -12.9 c 18.9 6.2 37.7 6.6 56.4 1.4 l -1.2 101.2 c -27 -7.9 -51.4 -17.5 -73 -28.5 c 12.3 -17.9 18.5 -38.2 18.7 -61.2 Z M 335 458.5 c 4.1 0.2 8.7 0.5 13.2 0.7 c 23 -0.2 43.3 -6.5 61 -18.4 c 11 21.5 20.5 45.9 28.5 72.9 L 336.5 515 c 5.2 -18.7 4.7 -37.6 -1.5 -56.5 Z m 0.7 98.3 c -0.5 -1.2 -0.7 -2.1 -0.9 -3.3 l 112.7 -1.7 c 5.5 26.5 10 55 13.6 85.4 c 1.9 16.5 4.8 33.3 8.6 50.2 c 8.6 36.6 22 73.9 40.2 111.9 c 17.7 37.1 40.2 74.9 67.2 113.2 c -3.1 18.1 -10.5 30.8 -22.2 38.1 c -14.4 6.9 -34.3 7.8 -59.4 2.3 c -21.5 -21.8 -40.4 -44.7 -56.6 -68.6 c -41.7 -60 -66.8 -126.8 -75.7 -200 c -5.7 -47.1 -14.7 -89.7 -27.5 -127.5 Z m 217.9 -222.2 c 1 0.2 2 0.7 3.1 1.2 c 37.9 12.7 80.4 21.8 127.5 27.5 c 73.3 8.8 140 33.9 200.3 75.3 c 23.6 16.5 46.6 35.5 68.4 57 c 5.5 25.1 4.7 44.7 -2.4 59.3 c -7.2 11.7 -19.9 18.9 -37.8 22 c -38.5 -27.1 -76.1 -49.2 -113.1 -67.2 c -38.1 -18 -75.6 -31.4 -112.2 -40 c -17 -3.8 -33.5 -6.6 -50 -8.8 c -30.7 -3.6 -59.1 -8.2 -85.4 -13.7 l 1.6 -112.6 Z" fill="#543b2a" p-id="11397"></path></svg>