<?xml version="1.0" standalone="no"?><!DOCTYPE svg PUBLIC "-//W3C//DTD SVG 1.1//EN" "http://www.w3.org/Graphics/SVG/1.1/DTD/svg11.dtd"><svg t="1736844647566" class="icon" viewBox="0 0 1024 1024" version="1.1" xmlns="http://www.w3.org/2000/svg" p-id="11607" width="256" height="256" xmlns:xlink="http://www.w3.org/1999/xlink"><path d="M927.711473 90.217775c-13.462859-13.512721-27.873104-23.210966-37.288795-23.485209-159.044563-4.961313-408.876164 153.892111-662.883743 262.671179-12.436524 5.360212-22.151389 14.800834-25.571122 25.247015-3.432198 10.454492-0.037397 20.730309 8.937843 27.939587 141.355862 113.432896 319.235962 292.293624 430.923672 430.965225 5.713405 7.080466 13.417152 10.52513 21.590437 9.698244a26.435404 26.435404 0 0 0 6.320064-1.458476c10.442026-3.772925 19.866027-13.874224 25.114049-26.510197 106.381516-257.547813 260.202988-508.513784 256.072716-667.732866-0.228536-9.349208-9.810435-23.780229-23.215121-37.334502z" fill="#DFB574" p-id="11608"></path><path d="M349.868121 712.729563c-7.948904-3.099782-17.260715-10.063902-26.406317-19.147177-18.465724-18.428327-27.669499-36.835878-16.508623-46.106136 56.701905-48.823639 166.619499-158.678905 214.607942-214.437579 9.120671-10.986358 27.316307-1.645461 45.686461 16.75378 18.336912 18.428327 27.362014 36.387116 16.180361 45.283406-56.722681 46.903935-166.528084 156.763356-214.254749 214.437578-4.570724 5.534731-11.335395 6.349151-19.305075 3.216128z" fill="#878787" p-id="11609"></path><path d="M405.352551 650.197908a1143.948255 1143.948255 0 0 1-39.723744-39.844245c-22.342528-23.343932-45.97317-40.916287-68.652269-45.046559-22.720652-4.28817-43.147631 5.72587-60.819712 26.244264-50.032803 58.372296-116.727972 124.955275-175.598893 175.270632-44.851265 36.777705-32.377344 83.419862 17.942168 130.544023a1204.315049 1204.315049 0 0 1 39.956436 39.844245c22.467184 23.289915 46.151843 40.509077 68.826788 44.178122 22.720652 3.826942 43.101924-6.664946 60.69921-27.449273 49.841664-59.124388 116.320762-125.711522 174.954837-175.274788 20.613964-17.505872 30.84823-37.675229 26.830148-60.163189-3.860184-22.446408-21.166606-45.927462-44.414969-68.303232z" fill="#B0B0B0" p-id="11610"></path></svg>