<?xml version="1.0" standalone="no"?><!DOCTYPE svg PUBLIC "-//W3C//DTD SVG 1.1//EN" "http://www.w3.org/Graphics/SVG/1.1/DTD/svg11.dtd"><svg t="1736844659193" class="icon" viewBox="0 0 1024 1024" version="1.1" xmlns="http://www.w3.org/2000/svg" p-id="12731" width="256" height="256" xmlns:xlink="http://www.w3.org/1999/xlink"><path d="M941.44 289.6s-127.232 128.064-140.16 141.184c-13.056 12.992-56.96 11.648-56.96 11.648s-116.16-13.12-132.992-29.824c-16.64-16.704-28.16-138.176-28.16-138.176s-3.2-33.792 13.568-50.56l140.864-140.864s15.936-17.92-7.168-17.984c-74.432-0.256-225.792 1.472-299.008 74.816l-15.232 14.976a239.104 239.104 0 0 0-27.52 306.432l-284.096 251.264c-34.112 34.112-71.04 134.848 0 205.952 71.04 71.04 171.584 34.112 205.632-0.064 0 0 203.008-228.48 252.288-282.56a236.416 236.416 0 0 0 307.776-25.6l15.104-15.04c71.04-71.168 73.28-221.12 73.6-296.96 0.192-24.256-17.536-8.64-17.536-8.64zM229.12 878.08a84.096 84.096 0 1 1 0-168.192 84.096 84.096 0 1 1 0 168.192z" fill="#d4237a" p-id="12732"></path></svg>