<?xml version="1.0" standalone="no"?><!DOCTYPE svg PUBLIC "-//W3C//DTD SVG 1.1//EN" "http://www.w3.org/Graphics/SVG/1.1/DTD/svg11.dtd"><svg t="1736844743212" class="icon" viewBox="0 0 1141 1024" version="1.1" xmlns="http://www.w3.org/2000/svg" p-id="19236" width="285.25" height="256" xmlns:xlink="http://www.w3.org/1999/xlink"><path d="M134.076328 586.183957h951.827943v34.918715H134.076328z" fill="#FFFFFF" opacity=".54" p-id="19237"></path><path d="M780.832444 775.833593h-401.510284a12.877077 12.877077 0 0 0 0 25.749577h401.501129a12.872499 12.872499 0 0 0 0.009155-25.749577z" fill="#6E6E96" p-id="19238"></path><path d="M416.758611 572.089212l-0.004578-249.008704 0.004578-34.277836H226.042371c-37.322008 0-55.898325 29.791688-59.848883 48.221517l-36.845927 204.98494-0.201419-0.027467c-3.950557 18.443563-89.169067 48.949373-89.169066 67.804929v144.659976c0 18.841823 15.42228 34.254948 34.26868 34.254948h145.64876l734.913511-0.009155h140.842172v-182.343623l0.009156-34.254948-678.900744-0.004577z" fill="#8CD5FF" p-id="19239"></path><path d="M219.899094 804.728051H74.250334c-27.731722 0-50.290639-22.55434-50.290639-50.276906v-144.659976c0-19.148529 22.536029-31.837921 53.723916-49.407143 12.043935-6.779577 31.979829-18.013259 36.227937-23.360015l0.119021-0.352484 36.397312-202.480935 0.10071-0.526436c5.246047-24.472397 29.690978-60.883443 75.518357-60.883443h190.716241a16.031114 16.031114 0 0 1 16.021959 16.021959l-0.004578 34.277836 0.004578 232.986745 662.883362 0.004578a16.026536 16.026536 0 0 1 16.021959 16.026536l-0.009156 216.593993a16.021959 16.021959 0 0 1-16.021958 16.021958l-875.760261 0.013733zM56.003612 612.35926v142.087307a18.265033 18.265033 0 0 0 18.246722 18.232989l1005.382484-0.009155 0.004578-184.554653H416.758611a16.021959 16.021959 0 0 1-16.021959-16.021959l-0.004577-249.013281v-18.255878H226.042371c-29.764222 0-41.876822 25.282651-44.13363 35.330708l-36.790995 204.687388a15.953293 15.953293 0 0 1-1.570152 4.596014c-5.337601 13.092229-22.320877 23.195218-50.144153 38.864694-12.217888 6.884865-32.190404 18.13228-37.399829 24.055826z" fill="#6E6E96" p-id="19240"></path><path d="M1095.100875 697.962297c0 12.588682-10.299831 22.888512-22.888513 22.888512H426.770046c-12.588682 0-22.888512-10.299831-22.888512-22.888512V168.670025c0-12.588682 10.299831-22.888512 22.888512-22.888512h645.442316c12.588682 0 22.888512 10.299831 22.888513 22.888512V697.962297z" fill="#FFDC96" p-id="19241"></path><path d="M1072.212362 736.872768H426.770046c-21.455692 0-38.910471-17.45478-38.910471-38.910471V168.670025c0-21.455692 17.45478-38.910471 38.910471-38.910471h645.442316c21.455692 0 38.910471 17.45478 38.910472 38.910471V697.962297c0 21.455692-17.459357 38.910471-38.910472 38.910471zM426.770046 161.803472c-3.721672 0-6.866554 3.144882-6.866553 6.866553V697.962297c0 3.721672 3.144882 6.866554 6.866553 6.866553h645.442316c3.721672 0 6.866554-3.144882 6.866554-6.866553V168.670025c0-3.721672-3.144882-6.866554-6.866554-6.866553H426.770046z" fill="#6E6E96" p-id="19242"></path><path d="M1103.006567 564.732844v34.264103l0.009155-34.264103z" fill="#6E6E96" opacity=".12" p-id="19243"></path><path d="M1112.898982 777.39459a18.448141 18.448141 0 0 1-18.388631 18.388631H37.395252a18.448141 18.448141 0 0 1-18.393209-18.388631v-34.319036a18.448141 18.448141 0 0 1 18.393209-18.397786h1057.115099a18.443563 18.443563 0 0 1 18.388631 18.397786v34.319036z" fill="#F0F0FF" p-id="19244"></path><path d="M1094.510351 811.805179H37.395252c-18.974577 0-34.415167-15.436013-34.415168-34.410589v-34.319036c0-18.979154 15.44059-34.419745 34.415168-34.419744h1057.115099c18.974577 0 34.41059 15.44059 34.41059 34.419744v34.319036c0 18.974577-15.44059 34.41059-34.41059 34.410589zM37.395252 740.699727a2.435338 2.435338 0 0 0-2.37125 2.375827v34.319036c0 1.258868 1.107804 2.366672 2.37125 2.366672h1057.115099a2.426182 2.426182 0 0 0 2.366672-2.366672v-34.319036a2.43076 2.43076 0 0 0-2.366672-2.375827H37.395252z" fill="#6E6E96" p-id="19245"></path><path d="M19.006621 761.482496h1093.892361v32.043917H19.006621z" fill="#6E6E96" opacity=".15" p-id="19246"></path><path d="M218.557827 773.88807m-91.027614 0a91.027614 91.027614 0 1 0 182.055228 0 91.027614 91.027614 0 1 0-182.055228 0Z" fill="#BABADB" p-id="19247"></path><path d="M218.557827 880.937642c-59.029473 0-107.05415-48.020099-107.05415-107.049572s48.024677-107.05415 107.05415-107.05415 107.049572 48.024677 107.049572 107.05415-48.020099 107.049572-107.049572 107.049572z m0-182.055227c-41.359542 0-75.010233 33.650691-75.010233 75.010233 0 41.354964 33.650691 75.005655 75.010233 75.005655s75.005655-33.650691 75.005655-75.005655c0-41.36412-33.646113-75.010233-75.005655-75.010233z" fill="#6E6E96" p-id="19248"></path><path d="M870.642389 773.88807m-91.027613 0a91.027614 91.027614 0 1 0 182.055227 0 91.027614 91.027614 0 1 0-182.055227 0Z" fill="#BABADB" p-id="19249"></path><path d="M870.642389 880.937642c-59.029473 0-107.049572-48.020099-107.049572-107.049572s48.020099-107.05415 107.049572-107.05415 107.05415 48.024677 107.05415 107.05415-48.029254 107.049572-107.05415 107.049572z m0-182.055227c-41.354964 0-75.005655 33.650691-75.005655 75.010233 0 41.354964 33.650691 75.005655 75.005655 75.005655 41.359542 0 75.010233-33.650691 75.010233-75.005655-0.004578-41.36412-33.650691-75.010233-75.010233-75.010233z" fill="#6E6E96" p-id="19250"></path><path d="M219.812118 774.634235m-30.341013 0a30.341012 30.341012 0 1 0 60.682025 0 30.341012 30.341012 0 1 0-60.682025 0Z" fill="#F0F0FF" p-id="19251"></path><path d="M219.812118 820.997206c-25.561891 0-46.362971-20.80108-46.362971-46.367548s20.796502-46.362971 46.362971-46.362971 46.362971 20.796502 46.36297 46.362971-20.80108 46.367548-46.36297 46.367548z m0-60.682024a14.332786 14.332786 0 0 0-14.319054 14.319053c0 7.901114 6.422517 14.323631 14.319054 14.323631s14.319053-6.422517 14.319053-14.323631a14.337364 14.337364 0 0 0-14.319053-14.319053z" fill="#6E6E96" p-id="19252"></path><path d="M871.585396 774.634235m-30.341012 0a30.341012 30.341012 0 1 0 60.682024 0 30.341012 30.341012 0 1 0-60.682024 0Z" fill="#F0F0FF" p-id="19253"></path><path d="M871.585396 820.997206c-25.566468 0-46.362971-20.80108-46.362971-46.367548s20.796502-46.362971 46.362971-46.362971 46.362971 20.796502 46.362971 46.362971-20.796502 46.367548-46.362971 46.367548z m0-60.682024a14.332786 14.332786 0 0 0-14.319053 14.319053c0 7.901114 6.422517 14.323631 14.319053 14.323631s14.319053-6.422517 14.319053-14.323631a14.337364 14.337364 0 0 0-14.319053-14.319053z" fill="#6E6E96" p-id="19254"></path><path d="M348.138851 342.12375H245.076457c-12.281976 0-24.422043 9.819172-26.994711 21.826485l-20.448597 114.405941c-1.158159 5.42-2.224763 12.428462-3.044172 23.286772H348.134273V364.444627l0.004578-22.320877z" fill="#F0F0FF" p-id="19255"></path><path d="M348.134273 517.664907H194.588977a16.021959 16.021959 0 0 1-15.976182-17.225895c0.764476-10.130456 1.81277-18.136857 3.295946-25.159052l20.40282-114.149589 0.105287-0.540169c4.147398-19.340793 22.888512-34.48841 42.664187-34.488411h103.062394a16.031114 16.031114 0 0 1 16.021958 16.021959l-0.004577 159.51462a16.031114 16.031114 0 0 1-16.026537 16.026537z m-135.586969-32.043918H332.112315V358.145709H245.076457c-4.660101 0-10.185388 4.412905-11.288614 8.967719l-20.384509 114.058035a21.652533 21.652533 0 0 1-0.100709 0.531013 98.283272 98.283272 0 0 0-0.755321 3.918513z" fill="#6E6E96" p-id="19256"></path><path d="M403.881534 145.781513h691.219341v130.464521H403.881534z" fill="#FF9696" p-id="19257"></path><path d="M1095.100875 292.267992H403.881534a16.021959 16.021959 0 0 1-16.021959-16.021958v-130.464521a16.021959 16.021959 0 0 1 16.021959-16.021959h691.219341a16.021959 16.021959 0 0 1 16.021959 16.021959v130.464521a16.021959 16.021959 0 0 1-16.021959 16.021958z m-675.197382-32.043917h659.175423v-98.420603H419.903493v98.420603z" fill="#6E6E96" p-id="19258"></path><path d="M483.652577 145.781513h70.954389v130.464521h-70.954389z" fill="#FFFFFF" p-id="19259"></path><path d="M554.606966 292.267992h-70.954389a16.021959 16.021959 0 0 1-16.021958-16.021958v-130.464521a16.021959 16.021959 0 0 1 16.021958-16.021959h70.954389a16.021959 16.021959 0 0 1 16.021958 16.021959v130.464521a16.021959 16.021959 0 0 1-16.021958 16.021958z m-54.93243-32.043917h38.910471v-98.420603h-38.910471v98.420603z" fill="#6E6E96" p-id="19260"></path><path d="M946.000528 145.781513h70.954388v130.464521h-70.954388z" fill="#FFFFFF" p-id="19261"></path><path d="M1016.954916 292.267992h-70.954388a16.021959 16.021959 0 0 1-16.021959-16.021958v-130.464521a16.021959 16.021959 0 0 1 16.021959-16.021959h70.954388a16.021959 16.021959 0 0 1 16.021959 16.021959v130.464521a16.021959 16.021959 0 0 1-16.021959 16.021958z m-54.93243-32.043917h38.910471v-98.420603h-38.910471v98.420603z" fill="#6E6E96" p-id="19262"></path><path d="M792.647495 145.781513h70.954388v130.464521h-70.954388z" fill="#FFFFFF" p-id="19263"></path><path d="M863.601883 292.267992h-70.954388a16.021959 16.021959 0 0 1-16.021959-16.021958v-130.464521a16.021959 16.021959 0 0 1 16.021959-16.021959h70.954388a16.021959 16.021959 0 0 1 16.021959 16.021959v130.464521a16.021959 16.021959 0 0 1-16.021959 16.021958z m-54.93243-32.043917h38.910471v-98.420603h-38.910471v98.420603z" fill="#6E6E96" p-id="19264"></path><path d="M641.583313 145.781513h70.954388v130.464521h-70.954388z" fill="#FFFFFF" p-id="19265"></path><path d="M712.537701 292.267992h-70.954388a16.021959 16.021959 0 0 1-16.021959-16.021958v-130.464521a16.021959 16.021959 0 0 1 16.021959-16.021959h70.954388a16.021959 16.021959 0 0 1 16.021959 16.021959v130.464521a16.021959 16.021959 0 0 1-16.021959 16.021958z m-54.932429-32.043917h38.910471v-98.420603h-38.910471v98.420603z" fill="#6E6E96" p-id="19266"></path><path d="M607.845646 538.14097c0.512703-1.85397 0.878919-4.179442 0.860608-7.905692-0.320439-83.845199 65.625943-145.200145 147.278421-145.525162 81.657057-0.320439 148.093253 60.494338 148.422848 144.344115 0.018311 3.419544 0.320439 5.71755 0.805675 7.53032" fill="#D4D4E6" p-id="19267"></path><path d="M623.286236 542.421122l-30.881181-8.555726c0.192264-0.695811 0.283818-1.886013 0.27924-3.529409-0.343328-90.290604 71.357226-161.277036 163.236293-161.64783h0.704966c91.563205 0 163.446867 70.281466 163.79935 160.306563 0.013733 2.339206 0.205997 3.241013 0.265507 3.465321l-30.96358 8.253598c-0.892652-3.350878-1.322956-7.026773-1.345845-11.567854-0.288395-73.311905-56.882531-128.409132-131.732544-128.409133h-0.604256c-75.142986 0.297551-131.599791 55.94868-131.320551 129.439116 0.032044 4.696723-0.425726 8.596925-1.437399 12.245354z" fill="#6E6E96" p-id="19268"></path><path d="M920.516458 557.765581c0 14.781401-15.207128 26.871114-33.7926 26.871113H626.321253c-18.580894 0-33.7926-12.089712-33.7926-26.871113s15.207128-26.866536 33.7926-26.866536h260.407183c18.580894-0.004578 33.788022 12.089712 33.788022 26.866536z" fill="#D4D4E6" p-id="19269"></path><path d="M886.723858 600.658653H626.321253c-27.466215 0-49.814558-19.240084-49.814559-42.893072 0-23.648411 22.348343-42.888494 49.814559-42.888495h260.407183c27.466215 0 49.814558 19.240084 49.814558 42.888495-0.004578 23.648411-22.352921 42.893072-49.819136 42.893072z m-260.402605-53.742227c-10.011435 0-17.770641 5.827415-17.770641 10.844577s7.759206 10.849155 17.770641 10.849155h260.407183c10.011435 0 17.770641-5.831993 17.770641-10.849155s-7.759206-10.844577-17.770641-10.844577H626.321253z" fill="#6E6E96" p-id="19270"></path><path d="M904.407523 529.063386c-0.329595-83.849776-66.765791-144.669131-148.422848-144.344114-21.647955 0.091554-42.197261 4.467838-60.695757 12.414729 76.269101-18.672448 133.046345 30.231147 133.046345 58.828054 0 33.380606-77.354016 60.439406-172.776224 60.439406-15.962449 0-31.416772-0.759899-46.088309-2.183564a153.91609 153.91609 0 0 0-0.764476 16.026536c0.022889 3.72625-0.33875 6.047145-0.860608 7.905692l297.358397-1.556418c-0.476081-1.817348-0.778209-4.110777-0.79652-7.530321z" fill="#6E6E96" opacity=".15" p-id="19271"></path><path d="M886.723858 530.889889h-39.121045c8.64728 3.295946 10.753023 8.033868 13.440134 10.720979 15.133884 15.133884-7.11375 27.388394-169.219349 27.388394-36.704018 0-70.670571-1.881436-98.383982-5.094982 3.515676 11.842516 16.960388 20.723259 32.886214 20.723259h260.407184c18.585472 0 33.7926-12.089712 33.792599-26.871114-0.009155-14.767668-15.216283-26.861958-33.801755-26.866536z" fill="#6E6E96" opacity=".15" p-id="19272"></path><path d="M733.192295 427.255283c4.733344 9.050118-11.284037 17.619577-27.557769 26.129526-16.269155 8.514527-26.605607 13.746841-31.352684 4.7013-4.728767-9.050118 4.614324-23.277617 20.883478-31.792144 16.264577-8.514527 33.289052-8.084223 38.026975 0.961318z" fill="#FFFFFF" opacity=".51" p-id="19273"></path><path d="M39.986231 621.862571h54.561636v57.221281H39.986231z" fill="#FFE982" p-id="19274"></path><path d="M94.547867 695.10581H39.986231a16.021959 16.021959 0 0 1-16.021959-16.021958v-57.221281a16.021959 16.021959 0 0 1 16.021959-16.021959h54.561636a16.021959 16.021959 0 0 1 16.021959 16.021959v57.221281a16.021959 16.021959 0 0 1-16.021959 16.021958z m-38.539677-32.043917h22.517718v-25.177364h-22.517718v25.177364z" fill="#6E6E96" p-id="19275"></path><path d="M739.962717 338.045017h32.043917v46.669677h-32.043917zM328.010693 544.041628h33.856688v32.043918h-33.856688z" fill="#6E6E96" p-id="19276"></path><path d="M1095.659355 716.991806v-65.365014h-150.354638c-21.982127-12.25451-49.896957-21.31836-84.522699-21.31836-34.625742 0-62.110267 9.063851-83.511026 21.31836H403.881534v-352.483091H355.476908v399.276366c-19.409458-25.465759-63.117362-68.111635-138.306125-68.111635-102.046144 0-142.398591 78.548797-146.024131 86.065384-17.688242-3.053328-31.160421-16.997009-31.160421-33.636958v64.362497c0 18.846401 17.280827 34.264103 38.420657 34.264103h71.366382l823.762138-0.004578h157.86207v-64.367074h-35.738123z m-945.899818 0.004577H78.397733l-0.086977-0.004577h895.215496l-823.766715 0.004577z" fill="#6E6E96" opacity=".15" p-id="19277"></path></svg>